M48
INCH
T1C0.0300
T2C0.0315
T3C0.0354
T4C0.0394
T5C0.0591
%
G90
G05
T1
X5.8521Y-4.409
X5.8521Y-4.4878
X5.8521Y-4.5665
X6.049Y-4.409
X6.049Y-4.4878
X6.049Y-4.5665
T2
X4.9892Y-4.2702
X4.9892Y-4.3687
X4.9932Y-4.5682
X4.9932Y-4.6667
X4.9941Y-3.827
X4.9941Y-4.127
X4.9942Y-3.4387
X4.9942Y-3.7387
X4.9951Y-3.0472
X4.9951Y-3.3472
X5.1002Y-3.1417
X5.1035Y-3.999
X5.1053Y-4.1309
X5.1102Y-4.3957
X5.1192Y-3.2687
X5.1192Y-3.3687
X5.1192Y-3.4687
X5.1192Y-3.5687
X5.1192Y-3.6687
X5.1192Y-3.7687
X5.1192Y-3.8687
X5.1238Y-4.2587
X5.2222Y-4.2587
X5.3108Y-4.2587
X5.4002Y-3.1417
X5.4035Y-3.999
X5.4053Y-4.1309
X5.4092Y-4.2587
X5.4102Y-4.3957
X5.4192Y-3.2687
X5.4192Y-3.3687
X5.4192Y-3.4687
X5.4192Y-3.5687
X5.4192Y-3.6687
X5.4192Y-3.7687
X5.4192Y-3.8687
X5.5158Y-4.3937
X5.5192Y-3.9787
X5.5192Y-4.2787
X5.5423Y-3.3654
X5.5423Y-3.6654
X5.5482Y-3.7537
X5.5482Y-3.8521
X5.6142Y-4.3937
X5.6908Y-3.4737
X5.7012Y-3.6617
X5.7282Y-4.3467
X5.7282Y-4.6467
X5.7892Y-3.4737
X5.9428Y-3.4687
X6.0012Y-3.6617
X6.0412Y-3.4687
T3
X5.2552Y-4.5747
X5.2552Y-4.6747
T4
X5.1526Y-2.8602
X5.1535Y-3.003
X5.2526Y-2.8602
X5.2535Y-3.003
X5.3526Y-2.8602
X5.3535Y-3.003
X5.4789Y-4.5604
X5.4792Y-4.7057
X5.5789Y-4.5604
X5.5792Y-4.7057
X5.7072Y-4.112
X5.7072Y-4.212
X5.7312Y-3.8277
X5.7312Y-3.9277
X5.8572Y-4.1129
X5.8572Y-4.2129
X5.9652Y-3.8287
X5.9652Y-3.9287
T5
X5.1592Y-2.6687
X5.1592Y-2.7474
X5.2557Y-2.6687
X5.2557Y-2.7474
X5.3521Y-2.6687
X5.3521Y-2.7474
X5.4802Y-4.8137
X5.4802Y-4.9037
X5.5709Y-3.1476
X5.5802Y-4.8137
X5.5802Y-4.9037
X5.6693Y-3.1476
X5.7677Y-2.9508
X5.8661Y-3.1476
X5.9646Y-3.1476
X5.9672Y-4.1092
X5.9672Y-4.2057
X6.046Y-4.1092
X6.046Y-4.2057
T0
M30
