G04 #@! TF.GenerationSoftware,KiCad,Pcbnew,5.1.10-1.fc32*
G04 #@! TF.CreationDate,2021-07-07T18:30:05+05:30*
G04 #@! TF.ProjectId,BioAmp v1.5,42696f41-6d70-4207-9631-2e352e6b6963,v1.5.6*
G04 #@! TF.SameCoordinates,Original*
G04 #@! TF.FileFunction,Copper,L1,Top*
G04 #@! TF.FilePolarity,Positive*
%FSLAX46Y46*%
G04 Gerber Fmt 4.6, Leading zero omitted, Abs format (unit mm)*
G04 Created by KiCad (PCBNEW 5.1.10-1.fc32) date 2021-07-07 18:30:05*
%MOMM*%
%LPD*%
G01*
G04 APERTURE LIST*
G04 #@! TA.AperFunction,ComponentPad*
%ADD10C,1.524000*%
G04 #@! TD*
G04 #@! TA.AperFunction,ComponentPad*
%ADD11O,1.700000X1.700000*%
G04 #@! TD*
G04 #@! TA.AperFunction,ComponentPad*
%ADD12R,1.700000X1.700000*%
G04 #@! TD*
G04 #@! TA.AperFunction,ComponentPad*
%ADD13C,1.600000*%
G04 #@! TD*
G04 #@! TA.AperFunction,ComponentPad*
%ADD14R,1.600000X1.600000*%
G04 #@! TD*
G04 #@! TA.AperFunction,ComponentPad*
%ADD15O,2.000000X3.000000*%
G04 #@! TD*
G04 #@! TA.AperFunction,ComponentPad*
%ADD16R,2.704000X2.704000*%
G04 #@! TD*
G04 #@! TA.AperFunction,ComponentPad*
%ADD17O,2.400000X1.600000*%
G04 #@! TD*
G04 #@! TA.AperFunction,ComponentPad*
%ADD18R,2.400000X1.600000*%
G04 #@! TD*
G04 #@! TA.AperFunction,ComponentPad*
%ADD19C,1.800000*%
G04 #@! TD*
G04 #@! TA.AperFunction,ComponentPad*
%ADD20R,1.800000X1.800000*%
G04 #@! TD*
G04 #@! TA.AperFunction,ComponentPad*
%ADD21O,1.600000X1.600000*%
G04 #@! TD*
G04 #@! TA.AperFunction,ViaPad*
%ADD22C,1.700000*%
G04 #@! TD*
G04 #@! TA.AperFunction,Conductor*
%ADD23C,1.000000*%
G04 #@! TD*
G04 #@! TA.AperFunction,Conductor*
%ADD24C,0.750000*%
G04 #@! TD*
G04 APERTURE END LIST*
D10*
X153643400Y-115989400D03*
X153643400Y-113989400D03*
X153643400Y-111989400D03*
X148643400Y-115989400D03*
X148643400Y-113989400D03*
X148643400Y-111989400D03*
D11*
X141712000Y-119523800D03*
D12*
X139172000Y-119523800D03*
D13*
X140101000Y-111599000D03*
X142601000Y-111599000D03*
X150946800Y-88104000D03*
D14*
X153446800Y-88104000D03*
D13*
X144546000Y-88231000D03*
D14*
X147046000Y-88231000D03*
D12*
X144963200Y-104443800D03*
D11*
X144963200Y-106983800D03*
D15*
X149000000Y-79950000D03*
X144000000Y-79950000D03*
X151500000Y-79950000D03*
X141500000Y-79950000D03*
D16*
X146500000Y-74950000D03*
D17*
X137648000Y-83024000D03*
X130028000Y-98264000D03*
X137648000Y-85564000D03*
X130028000Y-95724000D03*
X137648000Y-88104000D03*
X130028000Y-93184000D03*
X137648000Y-90644000D03*
X130028000Y-90644000D03*
X137648000Y-93184000D03*
X130028000Y-88104000D03*
X137648000Y-95724000D03*
X130028000Y-85564000D03*
X137648000Y-98264000D03*
D18*
X130028000Y-83024000D03*
D12*
X148773200Y-104468800D03*
D11*
X148773200Y-107008800D03*
D19*
X133482400Y-118736400D03*
D20*
X133482400Y-116196400D03*
D21*
X137419400Y-111649800D03*
D13*
X129799400Y-111649800D03*
X126827600Y-116033200D03*
D14*
X126827600Y-118533200D03*
D11*
X135980000Y-76275000D03*
X133440000Y-76275000D03*
D12*
X130900000Y-76275000D03*
X130875000Y-72650000D03*
D11*
X133415000Y-72650000D03*
X135955000Y-72650000D03*
D21*
X129630000Y-101575000D03*
D13*
X137250000Y-101575000D03*
D21*
X137295000Y-104925000D03*
D13*
X129675000Y-104925000D03*
X126726000Y-108464000D03*
X126726000Y-110964000D03*
D12*
X139164400Y-115835000D03*
D11*
X141704400Y-115835000D03*
D21*
X140188000Y-101058000D03*
D13*
X140188000Y-108678000D03*
D21*
X140775000Y-85480000D03*
D13*
X140775000Y-93100000D03*
D21*
X145496600Y-110405200D03*
D13*
X145496600Y-118025200D03*
D21*
X129545400Y-79798200D03*
D13*
X137165400Y-79798200D03*
D21*
X126850000Y-97205000D03*
D13*
X126850000Y-104825000D03*
D21*
X126875000Y-85020000D03*
D13*
X126875000Y-77400000D03*
D21*
X152430800Y-93006200D03*
D13*
X144810800Y-93006200D03*
D21*
X126853000Y-94962000D03*
D13*
X126853000Y-87342000D03*
D11*
X145572800Y-97222600D03*
D12*
X145572800Y-99762600D03*
D11*
X151516400Y-97248000D03*
D12*
X151516400Y-99788000D03*
D13*
X137394000Y-108170000D03*
X134894000Y-108170000D03*
X132644200Y-108170000D03*
X130144200Y-108170000D03*
X140924600Y-97843000D03*
X140924600Y-95343000D03*
D22*
X141737400Y-122267000D03*
X139197400Y-122267000D03*
X141737400Y-124553000D03*
X139197400Y-124553000D03*
X131044000Y-67784000D03*
X133494000Y-67784000D03*
X135944000Y-67784000D03*
X131044000Y-69784000D03*
X133494000Y-69784000D03*
X135944000Y-69784000D03*
X151567200Y-106823800D03*
X151567200Y-104373800D03*
X153567200Y-106823800D03*
X153567200Y-104373800D03*
D23*
X144546000Y-92741400D02*
X144810800Y-93006200D01*
X144546000Y-88231000D02*
X144546000Y-92741400D01*
X135980000Y-76275000D02*
X138011000Y-76275000D01*
X138011000Y-76275000D02*
X139172000Y-77436000D01*
X139172000Y-81500000D02*
X137648000Y-83024000D01*
X139172000Y-77436000D02*
X139172000Y-81500000D01*
X140775000Y-85480000D02*
X140775000Y-89580000D01*
X140775000Y-89580000D02*
X142702600Y-91507600D01*
X142702600Y-91507600D02*
X142702600Y-95774800D01*
X144150400Y-97222600D02*
X145572800Y-97222600D01*
X142702600Y-95774800D02*
X144150400Y-97222600D01*
X151491000Y-97222600D02*
X151516400Y-97248000D01*
X145572800Y-97222600D02*
X151491000Y-97222600D01*
X152430800Y-96333600D02*
X151516400Y-97248000D01*
X152430800Y-93006200D02*
X152430800Y-96333600D01*
D24*
X151516400Y-97248000D02*
X147325400Y-101439000D01*
X147348199Y-105583799D02*
X148773200Y-107008800D01*
X147348199Y-104382799D02*
X147348199Y-105583799D01*
X147325400Y-104360000D02*
X147348199Y-104382799D01*
X147325400Y-101439000D02*
X147325400Y-104360000D01*
D23*
X142844200Y-99762600D02*
X145572800Y-99762600D01*
X140924600Y-97843000D02*
X142844200Y-99762600D01*
D24*
X145496600Y-110405200D02*
X143210600Y-108119200D01*
X143210600Y-108119200D02*
X143210600Y-103191600D01*
X145572800Y-100829400D02*
X145572800Y-99762600D01*
X143210600Y-103191600D02*
X145572800Y-100829400D01*
D23*
X147046000Y-88231000D02*
X147046000Y-89704200D01*
X147046000Y-89704200D02*
X148062000Y-90720200D01*
X148062000Y-90720200D02*
X152608600Y-90720200D01*
X153446800Y-89882000D02*
X153446800Y-88104000D01*
X152608600Y-90720200D02*
X153446800Y-89882000D01*
X137250000Y-101575000D02*
X135879000Y-101575000D01*
X135879000Y-101575000D02*
X134600000Y-100296000D01*
X134600000Y-100296000D02*
X134600000Y-96994000D01*
X135870000Y-95724000D02*
X137648000Y-95724000D01*
X134600000Y-96994000D02*
X135870000Y-95724000D01*
D24*
X137250000Y-101575000D02*
X142143800Y-106468800D01*
X142143800Y-108703400D02*
X144121599Y-110681199D01*
X142143800Y-106468800D02*
X142143800Y-108703400D01*
X144121599Y-116650199D02*
X145496600Y-118025200D01*
X144121599Y-110681199D02*
X144121599Y-116650199D01*
D23*
X130028000Y-108464000D02*
X130322000Y-108170000D01*
X130144200Y-107876000D02*
X130144200Y-108170000D01*
X133076000Y-104944200D02*
X130144200Y-107876000D01*
X133076000Y-91660000D02*
X133076000Y-104944200D01*
X132060000Y-90644000D02*
X133076000Y-91660000D01*
X130028000Y-90644000D02*
X132060000Y-90644000D01*
X148643400Y-115989400D02*
X148643400Y-118967800D01*
X148643400Y-118967800D02*
X147452400Y-120158800D01*
X147452400Y-120158800D02*
X145115600Y-120158800D01*
X145115600Y-120158800D02*
X142778800Y-117822000D01*
X142778800Y-117822000D02*
X136251000Y-117822000D01*
X135336600Y-118736400D02*
X133482400Y-118736400D01*
X136251000Y-117822000D02*
X135336600Y-118736400D01*
X132644200Y-108170000D02*
X134894000Y-108170000D01*
X137419400Y-111649800D02*
X135311200Y-111649800D01*
X134894000Y-111232600D02*
X134894000Y-108170000D01*
X135311200Y-111649800D02*
X134894000Y-111232600D01*
X137419400Y-111446600D02*
X140188000Y-108678000D01*
X137419400Y-111649800D02*
X137419400Y-111446600D01*
X133482400Y-116196400D02*
X133482400Y-112183200D01*
X133482400Y-112183200D02*
X131298000Y-109998800D01*
X131298000Y-109998800D02*
X128707200Y-109998800D01*
X128707200Y-109998800D02*
X128326200Y-109617800D01*
X128326200Y-106273800D02*
X129675000Y-104925000D01*
X128326200Y-109617800D02*
X128326200Y-106273800D01*
X144000000Y-79950000D02*
X144000000Y-78348400D01*
X144000000Y-78348400D02*
X145039400Y-77309000D01*
X145039400Y-77309000D02*
X148163600Y-77309000D01*
X149000000Y-78145400D02*
X149000000Y-79950000D01*
X148163600Y-77309000D02*
X149000000Y-78145400D01*
X127147200Y-77400000D02*
X129545400Y-79798200D01*
X126875000Y-77400000D02*
X127147200Y-77400000D01*
X129545400Y-82541400D02*
X130028000Y-83024000D01*
X129545400Y-79798200D02*
X129545400Y-82541400D01*
X136098600Y-79798200D02*
X137165400Y-79798200D01*
X135108000Y-92422000D02*
X135108000Y-80788800D01*
X135108000Y-80788800D02*
X136098600Y-79798200D01*
X135870000Y-93184000D02*
X135108000Y-92422000D01*
X137648000Y-93184000D02*
X135870000Y-93184000D01*
X141712000Y-119523800D02*
X143896400Y-121708200D01*
X143896400Y-121708200D02*
X148265200Y-121708200D01*
X148265200Y-121708200D02*
X151364000Y-118609400D01*
X151364000Y-118609400D02*
X151364000Y-115307400D01*
X152682000Y-113989400D02*
X153643400Y-113989400D01*
X151364000Y-115307400D02*
X152682000Y-113989400D01*
X151500000Y-79950000D02*
X151500000Y-85936000D01*
X150946800Y-86489200D02*
X150946800Y-88104000D01*
X151500000Y-85936000D02*
X150946800Y-86489200D01*
M02*
