<?xml version="1.0" encoding="UTF-8" standalone="no"?>
<svg
   xmlns:dc="http://purl.org/dc/elements/1.1/"
   xmlns:cc="http://creativecommons.org/ns#"
   xmlns:rdf="http://www.w3.org/1999/02/22-rdf-syntax-ns#"
   xmlns:svg="http://www.w3.org/2000/svg"
   xmlns="http://www.w3.org/2000/svg"
   xmlns:sodipodi="http://sodipodi.sourceforge.net/DTD/sodipodi-0.dtd"
   xmlns:inkscape="http://www.inkscape.org/namespaces/inkscape"
   width="1.4791224in"
   xml:space="preserve"
   x="0px"
   version="1.1"
   y="0px"
   height="0.26616621in"
   viewBox="0 0 106.497 19.163998"
   id="svg"
   sodipodi:docname="Battery_block_9V85.svg"
   inkscape:version="1.0.1 (3bc2e813f5, 2020-09-07)"><metadata
   id="metadata178"><rdf:RDF><cc:Work
       rdf:about=""><dc:format>image/svg+xml</dc:format><dc:type
         rdf:resource="http://purl.org/dc/dcmitype/StillImage" /></cc:Work></rdf:RDF></metadata><defs
   id="defs176">
  
  
  
  
  
  
  
  
  
  
  
  
  
  
  
  
  
  
  
 </defs><sodipodi:namedview
   pagecolor="#ffffff"
   bordercolor="#666666"
   borderopacity="1"
   objecttolerance="10"
   gridtolerance="10"
   guidetolerance="10"
   inkscape:pageopacity="0"
   inkscape:pageshadow="2"
   inkscape:window-width="1366"
   inkscape:window-height="694"
   id="namedview174"
   showgrid="false"
   inkscape:zoom="2.3259756"
   inkscape:cx="25.983959"
   inkscape:cy="23.760499"
   inkscape:window-x="0"
   inkscape:window-y="0"
   inkscape:window-maximized="1"
   inkscape:current-layer="svg" />
 
 
 
 
 <path
   fill="#353535"
   d="m 2.573,151.871 h 0.06 c -0.099,0 -0.195,-0.007 -0.293,-0.01 0.078,0.003 0.154,0.01 0.233,0.01 z"
   id="path78" /><path
   fill="#353535"
   d="m 2.014,151.847 c -0.021,-0.001 -0.041,-0.004 -0.062,-0.006 0.021,0.002 0.042,0.005 0.062,0.006 z"
   id="path80" /><path
   opacity="0.35"
   d="m 2.34,151.861 c -0.108,-0.004 -0.219,-0.005 -0.325,-0.014 0.106,0.008 0.215,0.01 0.325,0.014 z"
   id="path82" /><path
   fill="#353535"
   d="m 67.63,148.251 c -0.606,0.896 -2.843,1.566 -5.498,1.566 h -59.5 c -3.117,0 -5.666,-0.924 -5.666,-2.052 v 0.124 c 0.36,2.076 2.42,3.721 4.986,3.951 0.021,0.002 0.041,0.005 0.062,0.006 0.106,0.009 0.217,0.01 0.325,0.014 0.098,0.003 0.194,0.01 0.293,0.01 h 59.469 c 2.695,0.001 4.961,-1.555 5.529,-3.619 z"
   id="path84" /><g
   id="g1126"
   transform="translate(-3.097)"><rect
     width="8.2559996"
     x="101.338"
     y="16.158001"
     fill="#8c8c8c"
     height="2.9979999"
     id="connector0pin" /><rect
     width="8.2559996"
     x="101.338"
     y="8.9580002"
     fill="#8c8c8c"
     height="3"
     id="connector1pin" /><rect
     width="0.56"
     x="109.034"
     y="16.158001"
     fill="#8c8c8c"
     height="2.9979999"
     id="connector0terminal" /><rect
     width="0.56"
     x="109.034"
     y="8.9580002"
     fill="#8c8c8c"
     height="3"
     id="connector1terminal" /><g
     id="g18">
   <g
   id="g14">
    <path
   fill="#939393"
   d="m 9.572,13.877 h 14.457 c 0.312,0 0.566,-0.255 0.566,-0.567 V 5.091 c 0,-0.312 -0.255,-0.567 -0.566,-0.567 H 16.8 9.572 c -0.312,0 -0.566,0.255 -0.566,0.567 v 8.219 c 0,0.313 0.255,0.567 0.566,0.567 z M 9.876,5.188 c 0,-0.304 0.248,-0.552 0.552,-0.552 h 6.373 6.373 c 0.304,0 0.552,0.248 0.552,0.552 v 8.025 c 0,0.304 -0.248,0.552 -0.552,0.552 H 10.428 c -0.304,0 -0.552,-0.248 -0.552,-0.552 V 5.188 Z"
   id="path6" />
    <path
   fill="#b2b2b2"
   d="m 10.428,13.765 h 6.373 6.373 c 0.304,0 0.552,-0.248 0.552,-0.552 V 5.188 c 0,-0.304 -0.248,-0.552 -0.552,-0.552 h -6.373 -6.373 c -0.304,0 -0.552,0.248 -0.552,0.552 v 8.025 c 0,0.304 0.248,0.552 0.552,0.552 z"
   id="path8" />
    <path
   fill="#e6e6e6"
   d="m 11.673,13.676 h 5.128 5.128 c 0.28,0 0.51,-0.229 0.51,-0.51 v -7.62 c 0,-0.281 -0.229,-0.51 -0.51,-0.51 h -3.981 c 0.109,0.094 0.186,0.232 0.186,0.396 v 6.865 c 0,0.281 -0.21,0.51 -0.466,0.51 h -0.866 -2.474 c -0.256,0 -0.466,-0.229 -0.466,-0.51 V 5.433 c 0,-0.164 0.076,-0.303 0.186,-0.396 h -2.374 c -0.28,0 -0.51,0.229 -0.51,0.51 v 7.62 c -10e-4,0.281 0.229,0.509 0.509,0.509 z"
   id="path10" />
    <path
   opacity="0.9"
   fill="#ffffff"
   d="m 19.241,5.759 c 0,-0.299 -0.199,-0.542 -0.442,-0.542 h 2.173 c 0.244,0 0.443,0.243 0.443,0.542 v 7.277 c 0,0.299 -0.199,0.542 -0.443,0.542 h -2.173 c 0.243,0 0.442,-0.243 0.442,-0.542 z"
   id="path12" />
   </g>
   <rect
   width="15.547"
   x="9.0170002"
   opacity="0.1"
   y="4.5640001"
   height="1.5470001"
   id="rect16" />
  </g><rect
     width="15.547"
     x="45.132"
     y="15.109"
     fill="none"
     height="1.5470001"
     id="rect74" /><path
     fill="none"
     stroke="#000000"
     stroke-width="3"
     d="m 67.713,4.415 c 14.469,0 13.856,13.249 27.556,13.249 h 6.07"
     id="path110" /><path
     fill="none"
     stroke="#ff0000"
     stroke-width="3"
     d="m 67.713,4.417 c 17.259,0 16.104,6.035 27.556,6.035 0,0 1.822,0 6.07,0"
     id="path112" /><g
     id="g156">
   <path
   fill="#919191"
   d="m 42.569,14.396 c 0.384,0.017 1.126,-0.673 1.126,-0.673 0,0 0.365,0.743 1.012,0.792 2.887,0.216 4.328,0.119 7.214,0.119 0.39,0 0.813,0.014 0.996,-0.491 0.181,0.505 0.603,0.491 0.993,0.491 2.945,0 4.413,0.086 7.36,-0.137 0.715,-0.054 1.017,-0.791 1.017,-0.791 0,0 0.422,0.719 0.853,0.699 0.519,-0.01 1.007,0.029 1.046,-0.418 0.152,-1.734 0.295,-2.528 0.371,-4.083 0.065,-1.324 -0.391,-1.901 -0.391,-3.378 0,-1.017 -0.904,-2.17 -1.673,-2.17 -2.716,0 -4.074,0.062 -6.79,-0.143 C 54.497,4.122 53.252,4.355 52.917,5.442 52.581,4.354 51.332,4.119 50.126,4.21 47.411,4.414 46.054,4.356 43.338,4.356 42.57,4.356 41.8,5.59 41.8,6.527 c 0,0 -0.683,2.106 -0.574,3.675 0.109,1.569 0.556,3.802 0.556,3.802 0.054,0.639 0.603,0.384 0.787,0.392 z"
   id="path114" />
   <g
   id="g122">
    <path
   fill="#f4f4f4"
   d="m 64.074,12.063 c -0.849,0.252 -1.446,0.492 -1.446,0.492 0.174,-1.797 0.276,-2.646 -10e-4,-4.163 0.52,0.092 1.006,0.175 1.477,0.25 0.278,1.3 0.067,1.915 -0.03,3.421 z"
   id="path116" />
    <path
   fill="#b7b7b7"
   d="m 63.824,13.997 c -0.747,-0.039 -1.273,-0.642 -1.196,-1.441 0,0 0.598,-0.24 1.446,-0.492 -0.05,0.772 -0.181,1.159 -0.25,1.933 z"
   id="path118" />
    <path
   fill="#999999"
   d="M 62.731,9.295 C 62.716,8.696 62.636,8.473 62.543,7.954 62.422,7.274 63.048,6.6 63.801,6.547 c 0,0.926 0.131,1.295 0.302,2.095 -0.558,0 -1.384,0.111 -1.372,0.653 z"
   id="path120" />
   </g>
   <g
   id="g134">
    <path
   fill="#f4f4f4"
   d="m 61.867,12.606 c -0.062,0.835 -0.548,1.543 -1.064,1.58 -2.619,0.189 -3.907,0.101 -6.508,0.101 -0.515,0 -0.932,-0.675 -0.932,-1.51 0,0 0.187,-1.416 0.187,-2.246 0,-0.83 -0.187,-2.157 -0.187,-2.157 0,-1.239 0.417,-2.104 0.932,-2.075 2.601,0.147 3.902,0.24 6.503,0.24 0.513,0 0.903,0.707 1.001,1.416 0.233,1.7 0.219,2.646 0.068,4.651 z"
   id="path124" />
    <g
   id="g128">
     <path
   fill="#b7b7b7"
   d="m 60.803,14.186 c -2.619,0.189 -3.907,0.101 -6.508,0.101 -0.515,0 -0.932,-0.675 -0.932,-1.51 0,0 2.748,-0.12 4.409,-0.12 1.786,0 4.095,-0.051 4.095,-0.051 -0.062,0.835 -0.548,1.543 -1.064,1.58 z"
   id="path126" />
    </g>
    <g
   id="g132">
     <path
   fill="#999999"
   d="m 60.798,6.539 c -2.601,0 -3.902,-0.093 -6.503,-0.24 -0.515,-0.029 -0.932,0.641 -0.932,1.472 0,0.245 0,0.368 0,0.613 1.22,0.396 2.746,0.642 4.407,0.643 1.797,0.001 3.009,-0.599 4.171,0.355 0.002,-0.645 -0.067,-0.879 -0.143,-1.427 -0.097,-0.709 -0.487,-1.416 -1,-1.416 z"
   id="path130" />
    </g>
   </g>
   <g
   id="g142">
    <path
   fill="#f4f4f4"
   d="m 41.759,12.066 c 0.851,0.254 1.449,0.494 1.449,0.494 -0.171,-1.797 -0.272,-2.65 0,-4.168 -0.52,0.092 -1.004,0.175 -1.476,0.25 -0.275,1.3 -0.071,1.918 0.027,3.424 z"
   id="path136" />
    <path
   fill="#b7b7b7"
   d="m 42.007,14 c 0.747,-0.037 1.277,-0.64 1.201,-1.439 0,0 -0.599,-0.24 -1.449,-0.494 0.05,0.772 0.179,1.159 0.248,1.933 z"
   id="path138" />
    <path
   fill="#999999"
   d="M 43.105,9.626 C 43.099,8.911 43.177,8.589 43.289,7.954 43.408,7.274 42.783,6.6 42.03,6.547 c 0,0.926 -0.129,1.295 -0.298,2.095 0.422,0 1.369,0.334 1.373,0.984 z"
   id="path140" />
   </g>
   <g
   id="g154">
    <path
   fill="#f4f4f4"
   d="m 43.968,12.612 c 0.062,0.835 0.546,1.541 1.062,1.578 2.617,0.187 3.907,0.097 6.507,0.097 0.515,0 0.928,-0.675 0.928,-1.51 0,0 -0.169,-1.522 -0.169,-2.435 0,-0.913 0.169,-1.968 0.169,-1.968 0,-0.832 -0.413,-2.108 -0.928,-2.08 -2.6,0.144 -3.901,0.244 -6.501,0.244 -0.513,0 -0.904,0.707 -0.999,1.416 -0.229,1.701 -0.216,2.653 -0.069,4.658 z"
   id="path144" />
    <g
   id="g148">
     <path
   fill="#b7b7b7"
   d="m 45.029,14.19 c 2.617,0.187 3.907,0.097 6.507,0.097 0.515,0 0.928,-0.675 0.928,-1.51 0,0 -2.744,-0.12 -4.405,-0.12 -1.786,0 -4.091,-0.045 -4.091,-0.045 0.061,0.835 0.546,1.541 1.061,1.578 z"
   id="path146" />
    </g>
    <g
   id="g152">
     <path
   fill="#999999"
   d="m 45.035,6.539 c 2.6,0 3.901,-0.101 6.501,-0.244 0.515,-0.028 0.928,0.642 0.928,1.474 0,0.245 0,0.368 0,0.614 -1.219,0.395 -2.745,0.642 -4.405,0.644 -1.796,0.002 -3.2,-0.334 -4.164,0.567 -0.001,-0.711 0.059,-1.019 0.142,-1.639 0.094,-0.709 0.485,-1.416 0.998,-1.416 z"
   id="path150" />
    </g>
   </g>
  </g><path
     fill="#262626"
     d="m 67.753,6.917 c 0,0 0,-3.563 0,-4.48 C 67.753,0.738 66.587,0 61.496,0 H 9.354 C 4.263,0 3.097,0.738 3.097,2.437 c 0,0.917 0,4.48 0,4.48 z"
     id="path158" /><path
     opacity="0.35"
     fill="#ffffff"
     d="m 62.767,0.566 c 3.609,0 4.257,0.861 4.257,1.913 v 0.218 c 0,-0.586 -1.447,-1.065 -4.257,-1.065 H 8.082 c -2.81,0 -4.257,0.479 -4.257,1.065 V 2.479 c 0,-1.052 0.647,-1.913 4.257,-1.913 z"
     id="path160" /><path
     opacity="0.15"
     fill="#ffffff"
     d="M 5.586,1.815 C 4.434,2.003 3.825,2.325 3.825,2.697 v 3.817 h 1.761 z"
     id="path162" /><path
     opacity="0.15"
     fill="#ffffff"
     d="m 65.263,1.815 c 1.152,0.188 1.761,0.51 1.761,0.882 v 3.817 h -1.761 z"
     id="path164" /></g><g
   id="g170"
   transform="translate(-3.097)">
   <text
   fill="#ffffff"
   font-family="'Droid Sans'"
   transform="translate(22.6406,75.9355)"
   font-size="22px"
   id="text166">9</text>
   <text
   fill="#ffffff"
   font-family="'Droid Sans'"
   transform="translate(36.5776,75.936)"
   font-size="22px"
   id="text168">v</text>
  </g>
</svg>
